<svg xmlns="http://www.w3.org/2000/svg" width="1076.324" height="958.714" viewBox="0 0 1076.324 958.714"><defs><style>.a,.g{fill:none;}.a{stroke:#d1d3d4;}.b{fill:#d1d3d4;}.c{fill:#ffe01b;}.d{fill:#fff;}.e{fill:#231f20;}.f{stroke:none;}</style></defs><g transform="translate(-502.058 118.725)"><g class="a" transform="matrix(0.921, -0.391, 0.391, 0.921, 502.058, 227.854)"><ellipse class="f" cx="443.5" cy="332.5" rx="443.5" ry="332.5"/><ellipse class="g" cx="443.5" cy="332.5" rx="443" ry="332"/></g><g transform="translate(658.814 111)"><path class="b" d="M62.783,225.956H661.2a1.083,1.083,0,0,0,0-2.166H62.783a1.1,1.1,0,0,0-1.083,1.083,1.083,1.083,0,0,0,1.083,1.083Z" transform="translate(-38.526 185.534)"/><path class="b" d="M201.523,260.286h16.286a1.083,1.083,0,0,0,0-2.166H201.523a1.083,1.083,0,0,0-1.083,1.083A1.1,1.1,0,0,0,201.523,260.286Z" transform="translate(104.399 225.551)"/><path class="b" d="M109.7,247.876h25.988a1.083,1.083,0,1,0,0-2.166H109.7a1.083,1.083,0,1,0,0,2.166Z" transform="translate(385.367 211.085)"/><path class="b" d="M323.853,238.006h8.663a1.083,1.083,0,0,0,1.083-1.083,1.1,1.1,0,0,0-1.083-1.083h-8.663a1.1,1.1,0,0,0-1.083,1.083,1.083,1.083,0,0,0,1.083,1.083Z" transform="translate(-275.233 199.58)"/><path class="b" d="M304.373,252.526h12.994a1.083,1.083,0,1,0,0-2.166H304.373a1.1,1.1,0,0,0-1.083,1.083A1.083,1.083,0,0,0,304.373,252.526Z" transform="translate(-217.897 216.506)"/><path class="b" d="M327.893,262.526h12.994a1.083,1.083,0,0,0,0-2.166H327.893a1.1,1.1,0,0,0-1.083,1.083A1.083,1.083,0,0,0,327.893,262.526Z" transform="translate(-292.353 228.162)"/><path class="b" d="M78.648,252.526H90.494a1.083,1.083,0,1,0,0-2.166H78.583a1.084,1.084,0,1,0,.065,2.166Z" transform="translate(497.959 216.506)"/><path class="b" d="M81.3,235.366h18.885a1.083,1.083,0,1,0,0-2.166H81.3a1.083,1.083,0,0,0-1.083,1.083A1.1,1.1,0,0,0,81.3,235.366Z" transform="translate(482.375 196.503)"/><path class="b" d="M150.193,266.826h11.781a1.083,1.083,0,1,0,0-2.166H150.193a1.083,1.083,0,1,0,0,2.166Z" transform="translate(271.396 233.174)"/><path class="b" d="M214.67,238.006h14.163a1.083,1.083,0,0,0,1.083-1.083,1.1,1.1,0,0,0-1.083-1.083h-14.25a1.1,1.1,0,0,0-1.083,1.083,1.083,1.083,0,0,0,1.17,1.083Z" transform="translate(65.091 199.58)"/><path class="b" d="M237.983,252.526h15.441a1.083,1.083,0,0,0,1.083-1.083,1.1,1.1,0,0,0-1.083-1.083H237.983a1.1,1.1,0,0,0-1.083,1.083A1.083,1.083,0,0,0,237.983,252.526Z" transform="translate(-10.177 216.506)"/><path class="b" d="M301.068,205.489a1.061,1.061,0,0,0,.953-.563c5.5-10.179,11.24-16.654,18.062-20.357,7.363-3.985,18.321-4.613,25.035,1.862a1.087,1.087,0,0,0,1.516-1.559c-7.471-7.212-19.491-6.5-27.59-2.166-7.212,3.92-13.232,10.655-18.928,21.245a1.061,1.061,0,0,0,.455,1.451,1,1,0,0,0,.5.087Z" transform="translate(-239.259 133.841)"/><path class="b" d="M106.327,216.242a1.169,1.169,0,0,0,.736-.26c3.747-3.335,2.447-9.2.195-13.232a37.531,37.531,0,0,0-37.314-18.213c-3.205.476-6.5,2.426-6.021,5.522a1.095,1.095,0,0,0,2.166-.325c-.26-1.733,2.447-2.794,4.2-3.075A35.365,35.365,0,0,1,105.4,203.811c1.992,3.595,2.859,8.229.238,10.547a1.083,1.083,0,0,0,0,1.516A1.1,1.1,0,0,0,106.327,216.242Z" transform="translate(509.608 139.396)"/><path class="b" d="M235.517,242.6a1.083,1.083,0,0,0,1.061-.91,30.926,30.926,0,0,0-48.489-30.081c-3.01-17.867-14.315-33.091-29.193-39.09-15.918-6.5-35.062-.888-43.941,12.063a22.631,22.631,0,0,0-7.038-13.6,29.54,29.54,0,0,0-23.454-8.273c-13.319,1.6-25.706,11.326-34,26.7a1.085,1.085,0,0,0,1.906,1.04c7.84-14.553,19.924-24.1,32.355-25.576a27.309,27.309,0,0,1,21.657,7.645,19.491,19.491,0,0,1,6.5,15.853,1.1,1.1,0,0,0,.78,1.148,1.061,1.061,0,0,0,1.256-.563c7.19-14.38,26.984-20.985,43.313-14.445,14.683,5.934,25.706,21.332,28.154,39.2a1.1,1.1,0,0,0,.671.866,1.039,1.039,0,0,0,1.083-.173,28.782,28.782,0,0,1,46.41,27.049,1.1,1.1,0,0,0,.91,1.234Z" transform="translate(411.409 114.182)"/><path class="b" d="M258.891,211.388a1.083,1.083,0,0,0,1.083-1.04c.736-16.048,17.109-30.168,35.04-30.319,15.658,0,31.922,9.161,43.313,24.6a1.039,1.039,0,0,0,1.3.347,1.061,1.061,0,0,0,.628-1.169c-2.642-15.528,6.085-31.792,19.859-37.054a28.7,28.7,0,0,1,22.913,1.689,25.251,25.251,0,0,1,13.254,15.636,1.082,1.082,0,0,0,.628.715,1.126,1.126,0,0,0,.953,0,42.729,42.729,0,0,1,56.957,18.971,1.061,1.061,0,0,0,1.429.52,1.083,1.083,0,0,0,.541-1.429,45.024,45.024,0,0,0-58.841-20.487,27.721,27.721,0,0,0-13.99-15.723,30.882,30.882,0,0,0-24.645-1.776c-13.557,5.176-22.545,20.292-21.657,35.538-11.608-14.142-27.4-22.436-42.663-22.415-19.036,0-36.4,15.16-37.206,32.29a1.1,1.1,0,0,0,1.04,1.148Z" transform="translate(-257.786 114.797)"/><path d="M259.233,214.31l3.443,35.387s-16.805,3.032-28.89-.758-16.481-5.436-27.764-1.733c-24.429,8.035-15.614-23.606-15.614-23.606l33.134-8.186Z" transform="translate(85.692 174.484)"/><path d="M230.187,134.58S185.856,138.37,171,172.154,187.458,323.62,187.458,323.62l39.761-15.268s-12.453-109.257,1.169-123.442,85.305-36.015,85.305-36.015Z" transform="translate(82.015 81.546)"/><path class="c" d="M246.333,136.7c13.86,7.818,30.514,8.663,46.432,8.4a2.274,2.274,0,0,0,1.841-.606,2.165,2.165,0,0,0,.26-1.668q-1.668-15.723-4.57-31.272a2.425,2.425,0,0,0-.845-1.733,2.166,2.166,0,0,0-1.494-.195c-4.05.412-7.926,2.014-12,2.014-3.032,0-6.042-.91-9.1-.715a25.315,25.315,0,0,0-6.172,1.429l-8.944,2.88a11.8,11.8,0,0,0-5.068,2.6,4.071,4.071,0,0,0-.628,5.2" transform="translate(-68.987 52.398)"/><path class="d" d="M274.223,136.6c5.479.563,11.608.866,15.809-2.685a10.828,10.828,0,0,0,3.378-10.677,16.071,16.071,0,0,0-4.331-6.908,16.244,16.244,0,0,0-5.371-3.855,17.824,17.824,0,0,0-8.338-.8,22.545,22.545,0,0,0-10.265,3.01,10.005,10.005,0,0,0-4.006,13.427,14.986,14.986,0,0,0,13.124,8.489Z" transform="translate(-99.281 54.64)"/><path class="e" d="M280.574,138.609a16.329,16.329,0,0,0,10.937-3.292,11.673,11.673,0,0,0,3.725-11.759,16.979,16.979,0,0,0-4.656-7.407,17.478,17.478,0,0,0-5.761-4.093,19.274,19.274,0,0,0-8.836-.888,23.086,23.086,0,0,0-10.828,3.184c-5.457,3.53-7.255,9.637-4.331,14.856a15.939,15.939,0,0,0,14.012,9.031h0A54.284,54.284,0,0,0,280.574,138.609Zm-5.566-1.429Zm3.855-24.017a13.73,13.73,0,0,1,5.154.866,15.507,15.507,0,0,1,5.024,3.617,15.161,15.161,0,0,1,4.115,6.5,9.681,9.681,0,0,1-3.032,9.572c-3.876,3.27-9.767,2.967-15.008,2.426h0a13.86,13.86,0,0,1-12.344-7.948,8.9,8.9,0,0,1,3.638-11.976,21.224,21.224,0,0,1,9.767-2.859A12.074,12.074,0,0,1,278.863,113.163Z" transform="translate(-100.066 54.062)"/><path class="d" d="M308.616,104.49s-16.069,15.809-30.492,16.935a218.182,218.182,0,0,1-23.562.78s-7.926,9.832-2.057,17.152l68.954-1.3Z" transform="translate(-106.235 46.471)"/><path class="e" d="M253.132,141.02h0l68.955-1.321a1.061,1.061,0,0,0,1-1.451L310.219,104.68a1.083,1.083,0,0,0-1.754-.39c-.152.152-15.961,15.549-29.821,16.654a222.237,222.237,0,0,1-23.432.78,1.061,1.061,0,0,0-.888.39c-.346.433-8.4,10.59-2.036,18.495a1.018,1.018,0,0,0,.845.411Zm67.417-3.443-66.875,1.278c-4.071-5.717.736-13.146,2.036-14.965,2.166,0,10.828.173,23.129-.8s25.988-12.453,29.973-16.134Z" transform="translate(-106.863 45.891)"/><path class="c" d="M327.334,67s42.252,8.056,51.5,31.272c6.215,15.506,14.315,81.667-8.966,146.03L261.455,214.91s-4.331-29.02-2.6-47.818c0,0-60.314,31.554-69.777,31.575s-40.758-29.475-40.758-29.475l10.525-15.9s23.324,16.351,25.988,8.424c1.364-4.115,44.05-53.708,69.777-81.753C267.129,66.238,291.081,63.617,327.334,67Z" transform="translate(50.747 1.216)"/><path class="d" d="M184.875,93.1l-1.581,20.076s5.782,12.474,18.386,9.464a26.139,26.139,0,0,0,17.2-14.358l.195-36.578s-9.291-5.219-6.345-25.988a74.087,74.087,0,0,1-35.95,4.981s-2.685,21.981-1.256,32.03S184.875,93.1,184.875,93.1Z" transform="translate(159.097 -22.034)"/><path class="e" d="M198.6,124.9a17.327,17.327,0,0,0,4.071-.5,26.962,26.962,0,0,0,17.975-15.03.887.887,0,0,0,0-.411l.173-36.578a1.061,1.061,0,0,0-.563-.975s-8.663-5.241-5.782-24.927a1.126,1.126,0,0,0-1.559-1.191,73.632,73.632,0,0,1-35.344,4.894,1.126,1.126,0,0,0-.823.217,1.191,1.191,0,0,0-.433.758c-.108.91-2.685,22.241-1.256,32.333,1.191,8.468,6.822,10.655,9.269,11.218l-1.494,19.058a1.018,1.018,0,0,0,0,.563S188.054,124.9,198.6,124.9Zm19.9-16.242a25.1,25.1,0,0,1-16.351,13.492c-10.72,2.577-16.091-6.843-16.979-8.663l1.559-19.772a1.126,1.126,0,0,0-.282-.823,1.083,1.083,0,0,0-.78-.39c-.3,0-7.06-.52-8.316-9.486-1.213-8.511.628-25.988,1.126-30.622a74.737,74.737,0,0,0,33.611-4.483c-1.884,17.13,4.57,23.389,6.5,24.905Z" transform="translate(158.365 -22.643)"/><path class="e" d="M182.616,79.134a15.961,15.961,0,0,0,12.994-4.2c5.609-5.457,5.154-8.663,5.154-8.663s-8.987,4.959-17.325,3.162Z" transform="translate(161.118 1.92)"/><path class="e" d="M185.215,80.925a16.719,16.719,0,0,0,11.738-4.634c5.826-5.674,5.5-9.2,5.457-9.572a1.018,1.018,0,0,0-.585-.823,1.083,1.083,0,0,0-1,0s-8.663,4.743-16.459,3.075a1.1,1.1,0,0,0-.866.173,1.169,1.169,0,0,0-.455.78l-.845,9.659a1.1,1.1,0,0,0,.91,1.169A12.126,12.126,0,0,0,185.215,80.925Zm14.64-12.149a18.407,18.407,0,0,1-4.331,5.956,14.964,14.964,0,0,1-11,4.006l.65-7.428a28.847,28.847,0,0,0,14.683-2.534Z" transform="translate(160.359 1.342)"/><path class="d" d="M190.357,53.5s-5.977,11.326-4.18,12.994,6.324,0,6.324,0" transform="translate(162.408 -12.965)"/><path class="e" d="M189.3,68.99a13,13,0,0,0,4.18-.8,1.061,1.061,0,0,0,.628-1.386,1.083,1.083,0,0,0-1.386-.65c-1.256.476-4.2,1.126-5.2.195-.433-.931,1.6-6.5,4.331-11.716a1.083,1.083,0,1,0-1.906-1.018c-2.924,5.5-5.956,12.453-3.963,14.315A4.635,4.635,0,0,0,189.3,68.99Z" transform="translate(161.797 -13.578)"/><path class="e" d="M192.824,67.59h.736a13.1,13.1,0,0,0,9.269-5.133,1.126,1.126,0,0,0-.152-1.538,1.061,1.061,0,0,0-1.516.13,10.98,10.98,0,0,1-7.731,4.331,14.532,14.532,0,0,1-9.551-3.7,1.1,1.1,0,0,0-1.538,0,1.083,1.083,0,0,0,0,1.538,17.044,17.044,0,0,0,10.482,4.375Z" transform="translate(160.114 -4.619)"/><ellipse class="e" cx="2.924" cy="1.234" rx="2.924" ry="1.234" transform="translate(359.413 41.621) rotate(-93.62)"/><ellipse class="e" cx="2.924" cy="1.234" rx="2.924" ry="1.234" transform="translate(342.585 41.611) rotate(-93.62)"/><path class="d" d="M171.743,58.76a17.325,17.325,0,0,1,4.331-5.068A5.674,5.674,0,0,1,179.3,52.22a5.068,5.068,0,0,1,2.751.845,10.633,10.633,0,0,1,4.873,7.017,8.922,8.922,0,0,1-.152,4.071,9.226,9.226,0,0,1-3.92,4.916,25.664,25.664,0,0,1-5.739,2.555" transform="translate(198.346 -14.457)"/><path class="e" d="M177.774,73.257h.368a28.153,28.153,0,0,0,5.977-2.664,10.373,10.373,0,0,0,4.331-5.479,9.42,9.42,0,0,0,.173-4.613,11.694,11.694,0,0,0-5.371-7.753,6.5,6.5,0,0,0-3.378-1.018A7,7,0,0,0,176,53.441a18.819,18.819,0,0,0-4.613,5.414,1.115,1.115,0,0,0,1.949,1.083,16.4,16.4,0,0,1,4.05-4.743,4.613,4.613,0,0,1,2.577-1.213,3.92,3.92,0,0,1,2.166.693,9.464,9.464,0,0,1,4.331,6.237,7.471,7.471,0,0,1-.13,3.552,8.057,8.057,0,0,1-3.465,4.331,25.188,25.188,0,0,1-5.5,2.447,1.126,1.126,0,0,0-.671,1.429A1.1,1.1,0,0,0,177.774,73.257Z" transform="translate(197.687 -15.029)"/><path d="M226.443,91.3l-.217.368a16.048,16.048,0,0,1-6.5,7.06,7.125,7.125,0,0,1-8.663-1.494c-1.733-2.4-1.3-5.739-1.494-8.533-.368-5.306,1.148-14.878-2.166-19.491-1.559-2.166-5.912-2.317-8.251-2.6a77.961,77.961,0,0,0-13.1-.39,37.1,37.1,0,0,0-5.133.5c-2.491.433-2.642,1.083-2.837,3.6-.52,7.082-1.538,14.1-2.469,21.137a2.469,2.469,0,0,1-.52,1.386c-4.2-1.343-5.436-13.384-5.782-17.044a52.776,52.776,0,0,1,3.205-22.588,25.749,25.749,0,0,1,7.1-10.222,30.319,30.319,0,0,1,26.053-7.731c11.261,1.776,21.938,8.771,24.862,20.184A50.243,50.243,0,0,1,226.443,91.3Z" transform="translate(158.893 -34.783)"/><ellipse cx="59.979" cy="41.264" rx="59.979" ry="41.264" transform="translate(366.358 490.892) rotate(-91.146)"/><rect width="119.956" height="41.256" transform="translate(407.974 489.659) rotate(-91.09)"/><ellipse cx="59.967" cy="41.256" rx="59.967" ry="41.256" transform="translate(407.98 489.629) rotate(-91.09)"/><ellipse class="d" cx="40.246" cy="20.621" rx="40.246" ry="20.621" transform="translate(427.881 469.977) rotate(-91.146)"/><path class="d" d="M264.272,185.635s7.255.758,9.377-8.663,0-16.676-5.111-17.477-128.012-4.331-131.52,2.49-4.591,18.127,8.663,25.988S264.272,185.635,264.272,185.635Z" transform="translate(191.144 108.693)"/><path class="e" d="M175.2,192.583c34.456,0,85.89-4.851,89.68-5.219,1.04,0,8.251,0,10.4-9.594,1.494-6.5,1.018-12.323-1.278-15.7a6.952,6.952,0,0,0-4.7-3.075c-1.213-.195-128.423-5.2-132.646,3.054s-3.963,19.664,9.139,27.417C149.69,191.76,161.016,192.583,175.2,192.583Zm89.658-7.385h0c-1.061,0-104.991,9.984-117.855,2.382-14.878-8.771-10.135-21.028-8.316-24.558,4.331-5.587,123.031-3.075,130.372-1.927a4.721,4.721,0,0,1,3.248,2.166c1.949,2.859,2.317,8.1.975,14.012-1.884,8.489-7.97,7.948-8.208,7.926Z" transform="translate(190.557 108.046)"/><path class="d" d="M208.137,139.347a16.351,16.351,0,0,0,11.348-1.949A13.6,13.6,0,0,0,225.2,126.57a20.314,20.314,0,0,0-3.682-11.889,13.643,13.643,0,0,0-3.292-3.66,11.933,11.933,0,0,0-9.962-1.451,25.187,25.187,0,0,0-9.031,4.981,11.651,11.651,0,0,0-3.465,3.811c-2.166,4.5-1.018,9.789,1.3,13.99a13.665,13.665,0,0,0,11.066,7Z" transform="translate(110.692 51.808)"/><path class="e" d="M212.063,141.219a15.766,15.766,0,0,0,8.663-2.361,14.748,14.748,0,0,0,6.194-11.63,21.483,21.483,0,0,0-3.855-12.561,14.489,14.489,0,0,0-3.573-3.92,12.994,12.994,0,0,0-10.828-1.624,25.36,25.36,0,0,0-9.442,5.176,12.864,12.864,0,0,0-3.768,4.18c-2.166,4.331-1.6,9.68,1.321,14.986a14.748,14.748,0,0,0,11.868,7.493h0A23.043,23.043,0,0,0,212.063,141.219Zm.455-30.449A9.724,9.724,0,0,1,218.3,112.5a12.647,12.647,0,0,1,3.032,3.357,19.491,19.491,0,0,1,3.487,11.261,12.561,12.561,0,0,1-5.219,9.94,15.658,15.658,0,0,1-10.612,1.776h0a12.647,12.647,0,0,1-10.287-6.5c-1.213-2.166-3.768-7.9-1.256-12.994a10.937,10.937,0,0,1,3.14-3.378,23.648,23.648,0,0,1,8.663-4.786,13.321,13.321,0,0,1,3.249-.412Z" transform="translate(110.015 51.258)"/><path class="d" d="M225.1,98.555s23.541-.347,36.188,8.663,13.8,13.839,28.435,18.062,48.576,3.53,48.576,3.53l.282,15.16-70.124,3.812a96.86,96.86,0,0,0-2.859,18.191A14.619,14.619,0,0,1,260.18,176.5l-52.387,2.057s-6.605-30.991-13.557-36.08C184.664,135.415,213.683,97.862,225.1,98.555Z" transform="translate(2.277 39.542)"/><path class="e" d="M208.335,180.266h0l52.431-2.166a1.061,1.061,0,0,0,.606-.238,15.506,15.506,0,0,0,5.847-11.391,89.371,89.371,0,0,1,2.642-17.152l69.3-3.747a1.083,1.083,0,0,0,1.018-1.1l-.282-15.16a1.083,1.083,0,0,0-.346-.736,1,1,0,0,0-.758-.3c-.347,0-33.936.628-48.251-3.508a41.408,41.408,0,0,1-18.625-10.4c-2.534-2.166-5.414-4.613-9.486-7.515-12.647-8.987-35.344-8.836-36.816-8.814-9.2-.563-27.525,20.249-32.485,34.217-2.556,7.06-.845,10.2,1.04,11.586,5.436,3.985,11.348,26.941,13.167,35.452a1.061,1.061,0,0,0,1,.975Zm51.976-4.2-51.11,2.014c-1.169-5.241-7.19-31.012-13.8-35.842-2.339-1.733-1.451-5.912-.281-9.117,4.981-13.8,22.544-32.81,30.189-32.81h.346c.238,0,23.324-.26,35.538,8.446a117.738,117.738,0,0,1,9.334,7.385,43.725,43.725,0,0,0,19.491,10.828c13.319,3.855,41.8,3.682,47.8,3.6l.238,12.994L269,147.3a1.061,1.061,0,0,0-1,.8,95.7,95.7,0,0,0-2.9,18.495,13.384,13.384,0,0,1-4.786,9.334Z" transform="translate(1.735 38.935)"/><circle cx="24.992" cy="24.992" r="24.992" transform="translate(203.031 138.097)"/><circle cx="24.992" cy="24.992" r="24.992" transform="translate(189.842 138.336)"/><rect width="49.983" height="13.189" transform="translate(215.273 188.33) rotate(-91.09)"/><circle class="c" cx="20.704" cy="20.704" r="20.704" transform="translate(194.13 142.624)"/><path class="d" d="M196.752,359.952a5.946,5.946,0,0,0,1.126.238H364.135c15.16-4.808,19.6-15.16,26.248-33.806l65.793-1.256s-9.572-52.712-24.97-80.3-18.56-28.413-18.56-28.413-125.478-1.451-125.391,3.075,12.712,70.276,23.454,90.373,6.5,35.04-1.559,36.535-30.124-.888-39.242-5.674S256.914,182.78,255.116,162.076c-1.126-13.384-8.121-16.589-19.188-20.985a53.392,53.392,0,0,1-5.219-2.62,63.388,63.388,0,0,0-33.2-6.8c-24.039,1.386-40.649,6.172-48.013,21.2s-24.97,62.674-27.027,73.091-4.331,33.438,14.293,64.19S193.547,358.219,196.752,359.952Z" transform="translate(38.894 77.98)"/><path class="e" d="M364.816,361.725h.325c15.484-4.873,20.119-15.506,26.681-33.784l64.97-1.234a1.1,1.1,0,0,0,.823-.39,1.083,1.083,0,0,0,.217-.888c0-.52-9.767-53.21-25.078-80.627-14.51-25.988-18.386-28.717-19.253-28.955h-.26c-20.292-.238-121.753-1.169-126.041,3.162a1.408,1.408,0,0,0-.433,1.018c.108,5.306,12.8,70.665,23.584,90.957,7.45,13.925,7.3,24.753,4.656,30.319a7.991,7.991,0,0,1-5.457,4.764c-7.558,1.408-29.475-.823-38.527-5.587-6.5-3.378-10.828-102.5-12.6-144.839-.693-15.679-1.234-28.154-1.646-32.961-1.148-13.8-8.295-17.325-19.859-21.895a33.252,33.252,0,0,1-3.855-1.884l-1.234-.671a64.644,64.644,0,0,0-33.784-6.93c-20.422,1.191-40.5,4.656-48.922,21.808-7.3,14.835-25.035,62.8-27.114,73.351-4.007,20.292,1,42.75,14.445,64.97,19.1,31.554,57.26,68.478,60.378,70.167h0a4.113,4.113,0,0,0,1.473.368ZM197.433,360.4Zm167.21-.845H198.559l-.65-.13c-3.27-1.927-41.147-38.982-59.534-69.3-13.167-21.765-18.062-43.681-14.163-63.432,2.166-10.438,19.686-58.083,26.919-72.831,6.5-12.994,20.076-19.036,47.125-20.617a62.479,62.479,0,0,1,32.636,6.692l1.213.65A37.772,37.772,0,0,0,236.2,142.6c11.11,4.331,17.455,7.515,18.516,20.076.411,4.851.953,17.217,1.646,32.875,3.833,88.1,7.471,143.345,13.73,146.636,9.594,5.046,31.9,7.277,39.935,5.782a9.962,9.962,0,0,0,7.017-5.934c3.7-7.731,1.949-19.751-4.7-32.182-10.46-19.491-22.588-82.663-23.3-89.442,6.259-2.729,77.011-2.967,124.049-2.426.412.347,4.331,3.812,17.867,27.872,13.817,24.775,23.043,70.6,24.6,78.743l-64.515,1.213a1.083,1.083,0,0,0-1,.715c-6.562,18.451-10.893,28.37-25.4,33.026Z" transform="translate(38.213 77.55)"/><ellipse cx="59.979" cy="34.722" rx="59.979" ry="34.722" transform="translate(133.576 490.475) rotate(-91.146)"/><rect width="119.956" height="34.715" transform="translate(168.91 489.377) rotate(-91.09)"/><ellipse cx="59.967" cy="34.715" rx="59.967" ry="34.715" transform="translate(168.896 489.373) rotate(-91.09)"/><ellipse class="d" cx="40.238" cy="17.347" rx="40.238" ry="17.347" transform="translate(185.887 469.318) rotate(-91.09)"/><path class="d" d="M294.488,182.644s-21.765-4.331-33.654,9.247-26.789,48.034-23.346,51.348,65.273.8,82.295,2.166L343.5,266.26s2.815-26.443-2.967-45.262S331.477,189.054,294.488,182.644Z" transform="translate(-100.032 136.806)"/><path class="e" d="M343.91,267.907a1.149,1.149,0,0,0,.39,0,1.061,1.061,0,0,0,.693-.888c.108-1.083,2.837-26.854-2.924-45.7l-.347-1.126c-5.609-18.321-9.659-31.575-46.54-37.964-1.1-.217-22.566-4.331-34.65,9.594-11.066,12.669-27.785,48.511-23.281,52.842,2.166,2.166,16.979,2.166,47.926,2.166,14.272,0,27.785-.13,34.65.368L343.3,267.821A1.083,1.083,0,0,0,343.91,267.907ZM287,183.642a44.329,44.329,0,0,1,7.8.628h0c35.582,6.172,39.263,18.235,44.851,36.47l.325,1.148c4.721,15.355,3.573,36.123,3.054,42.728l-22.133-19.491a1.04,1.04,0,0,0-.628-.281c-6.8-.541-20.574-.476-35.149-.39-18.646,0-44.179.217-46.41-1.473-2.166-2.664,10.828-35.365,23.411-49.81,6.995-7.97,17.563-9.529,24.883-9.529Zm7.991-.433Z" transform="translate(-100.533 136.241)"/><path class="b" d="M250.674,218.083a1.061,1.061,0,0,0,1.083-1.018c2.642-49.2,18.906-76.881,19.079-77.162a1.083,1.083,0,0,0-.368-1.473,1.061,1.061,0,0,0-1.494.368c-.173.282-16.7,28.348-19.491,78.137a1.083,1.083,0,0,0,1.04,1.148Z" transform="translate(-53.902 85.839)"/><path class="e" d="M254.249,229.732a1.083,1.083,0,0,0,1.061-.845c0-.282,6.215-27.829,19.144-38.549a1.083,1.083,0,1,0-1.386-1.646c-13.492,11.175-19.621,38.57-19.859,39.74a1.083,1.083,0,0,0,.823,1.278Z" transform="translate(-65.88 144.227)"/><path class="e" d="M168.143,232.882h0l46.432-.866a1.083,1.083,0,1,0,0-2.166l-46.432.888a1.083,1.083,0,0,0,0,2.166Z" transform="translate(179.922 192.598)"/><path class="e" d="M181.487,261.674c9.052,0,16.437-.412,17.13-.433a1.126,1.126,0,0,0,1.018-1.148,1.083,1.083,0,0,0-1.148-1.018c-.39,0-39.133,2.166-49.2-3.313-1.624-.866-2.577-3.725-2.815-8.273-.975-18.993,10.828-56.805,13.752-58.819,3.4-2.317,32.2-4.115,50.741-4.764A1.1,1.1,0,0,0,212,182.779a1.148,1.148,0,0,0-1.126-1.039c-4.786.173-46.865,1.754-51.867,5.154-4.5,3.054-15.614,42.62-14.7,60.638.282,5.5,1.581,8.793,3.941,10.07C154.33,260.96,169.4,261.674,181.487,261.674Z" transform="translate(232.977 136.518)"/><path class="d" d="M223.431,110.059a4.829,4.829,0,0,0-4.331-1.516,11.045,11.045,0,0,0-4.461,1.906,5.241,5.241,0,0,0-6.973-.845,3.075,3.075,0,0,0-3.985-.195,7.752,7.752,0,0,0-2.469,3.53,43.72,43.72,0,0,0-2.967,9.984,7.384,7.384,0,0,0,0,3.941,2.9,2.9,0,0,0,3.054,1.992,3.92,3.92,0,0,0,2.166-1.862,19.489,19.489,0,0,0,2.664-5.934c-.736,2.49-1.321,5.609.65,7.32a4.656,4.656,0,0,0,5.847-.39,13.318,13.318,0,0,0,3.357-5.371,13.276,13.276,0,0,0,.628,6.692,1.1,1.1,0,0,0,.541.693,1.126,1.126,0,0,0,.823-.173,17.455,17.455,0,0,0,6.194-8.1,8.424,8.424,0,0,0-.845,4.721c.346,1.581,2.057,2.989,3.573,2.361a4.093,4.093,0,0,0,1.819-2.166,47.9,47.9,0,0,0,3.032-7.407c.823-2.62,1.473-6.5-.433-8.9A5.977,5.977,0,0,0,223.431,110.059Z" transform="translate(96.069 51.125)"/><path class="e" d="M218.01,131.727a2.338,2.338,0,0,0,1.169-.347,12.063,12.063,0,0,0,3.877-3.66,4.548,4.548,0,0,0,2.166,2.534,3.27,3.27,0,0,0,2.794.173,5,5,0,0,0,2.361-2.577,48.1,48.1,0,0,0,3.119-7.58c.758-2.469,1.711-7.017-.628-9.9a6.064,6.064,0,0,0-4.2-2.166,7.536,7.536,0,0,0-4.526,1,6.021,6.021,0,0,0-4.678-1.169,10.979,10.979,0,0,0-4.136,1.581,6.5,6.5,0,0,0-7.038-.78,4.331,4.331,0,0,0-4.7.238,8.836,8.836,0,0,0-2.859,4.006A43.314,43.314,0,0,0,197.7,123.3a8.511,8.511,0,0,0,.13,4.483,3.985,3.985,0,0,0,4.331,2.685,4.851,4.851,0,0,0,2.859-2.274l.325-.476a4.7,4.7,0,0,0,1.386,2.166,5.8,5.8,0,0,0,7.255-.39,8.662,8.662,0,0,0,1.6-1.754,12.324,12.324,0,0,0,.693,2.62,2.166,2.166,0,0,0,1.169,1.343A1.778,1.778,0,0,0,218.01,131.727Zm6.822-10.46a1.061,1.061,0,0,0-.975.606,16.351,16.351,0,0,1-5.609,7.536,12.214,12.214,0,0,1-.541-6,1.1,1.1,0,0,0-.78-1.213,1.04,1.04,0,0,0-1.278.628,12.15,12.15,0,0,1-3.054,4.938,3.66,3.66,0,0,1-4.461.433c-1.061-.953-1.234-2.685-.52-5.457l.217-.8a1.061,1.061,0,0,0-.758-1.3,1.083,1.083,0,0,0-1.321.736,4.028,4.028,0,0,1-.217.8,18.386,18.386,0,0,1-2.317,4.829c-.368.541-.931,1.3-1.581,1.429s-1.538-.585-1.841-1.343a6.5,6.5,0,0,1,0-3.357,42.381,42.381,0,0,1,2.88-9.745,6.886,6.886,0,0,1,2.166-3.075,2.014,2.014,0,0,1,2.555,0,1.083,1.083,0,0,0,1.473.152,4.158,4.158,0,0,1,5.479.65,1.1,1.1,0,0,0,1.429.238,10.525,10.525,0,0,1,4.028-1.754,3.747,3.747,0,0,1,3.422,1.126,1.1,1.1,0,0,0,1.538.152,5.241,5.241,0,0,1,3.747-1.083,3.811,3.811,0,0,1,2.707,1.3c1.776,2.166.758,6.259.26,7.9a43.857,43.857,0,0,1-2.989,7.233c-.325.65-.715,1.364-1.256,1.581a1.083,1.083,0,0,1-.953,0,2.3,2.3,0,0,1-1.148-1.494,7.688,7.688,0,0,1,.78-4.115,1.061,1.061,0,0,0-.563-1.364,1.1,1.1,0,0,0-.411-.173Z" transform="translate(95.404 50.506)"/><path class="d" d="M289.659,110.68a5.371,5.371,0,0,0-4.331-1.429,11.3,11.3,0,0,0-4.461,1.906,5.219,5.219,0,0,0-6.952-.845,3.118,3.118,0,0,0-4.006-.195,7.991,7.991,0,0,0-2.469,3.552,43.313,43.313,0,0,0-2.967,9.962,7.816,7.816,0,0,0,0,3.941,2.945,2.945,0,0,0,3.054,2.014A4.05,4.05,0,0,0,269.8,127.7a19.489,19.489,0,0,0,2.664-5.934c-.736,2.49-1.3,5.609.65,7.32a4.7,4.7,0,0,0,5.869-.39,13.492,13.492,0,0,0,3.335-5.371c-.563,1.343-.455,4.548,1.148,5.219s4.331-1.256,5.414-2.555a24.9,24.9,0,0,0,1.559-3.27c.26,1.061,0,2.166.195,3.292a4.329,4.329,0,0,0,.411,1.473,1.755,1.755,0,0,0,1.148.931,1.884,1.884,0,0,0,1.04,0,4.7,4.7,0,0,0,2.577-2.3,21.354,21.354,0,0,0,1.841-6.865c.26-2.166.476-4.851,2.555-6.28a1.818,1.818,0,0,0,.606-.541c.845-1.733-4.721-2.859-5.717-2.967a8.013,8.013,0,0,0-5.436,1.213Z" transform="translate(-115.734 51.976)"/><path class="e" d="M275.989,131.6a6.5,6.5,0,0,0,4.115-1.494,8.665,8.665,0,0,0,1.689-1.884,3.356,3.356,0,0,0,1.689,1.906c2.382,1,5.241-1.1,6.627-2.815a4.808,4.808,0,0,0,.433,1.256,2.88,2.88,0,0,0,1.863,1.494,3.053,3.053,0,0,0,1.624-.13,5.782,5.782,0,0,0,3.184-2.794,22.609,22.609,0,0,0,1.949-7.277v-.282a6.844,6.844,0,0,1,2.166-5.219,2.554,2.554,0,0,0,.975-.953,1.862,1.862,0,0,0,0-1.754c-1.126-2.036-6.5-2.75-6.5-2.75a9.053,9.053,0,0,0-5.414,1.04,6.3,6.3,0,0,0-4.678-1.169,10.958,10.958,0,0,0-4.158,1.6,6.5,6.5,0,0,0-7.038-.8,4.331,4.331,0,0,0-4.7.238,8.836,8.836,0,0,0-2.859,4.006,45.481,45.481,0,0,0-3.032,10.222,8.3,8.3,0,0,0,.152,4.483,3.963,3.963,0,0,0,4.331,2.685,4.894,4.894,0,0,0,2.945-2.317l.325-.5a4.894,4.894,0,0,0,1.386,2.166A4.721,4.721,0,0,0,275.989,131.6Zm6.779-8.663a1.083,1.083,0,0,0-1,.671,12.6,12.6,0,0,1-3.032,4.959,3.682,3.682,0,0,1-4.461.411c-1.083-.953-1.256-2.685-.541-5.479a3.493,3.493,0,0,1,.217-.78,1.061,1.061,0,0,0-.758-1.3,1.083,1.083,0,0,0-1.321.736,3.5,3.5,0,0,1-.217.78,18.129,18.129,0,0,1-2.3,4.851c-.411.606-.953,1.3-1.581,1.429s-1.559-.585-1.841-1.343a6.756,6.756,0,0,1,0-3.357,42.427,42.427,0,0,1,2.9-9.745,6.887,6.887,0,0,1,2.166-3.075,2.036,2.036,0,0,1,2.555,0,1.083,1.083,0,0,0,1.473.152,4.158,4.158,0,0,1,5.479.65,1.083,1.083,0,0,0,1.408.238,10.677,10.677,0,0,1,4.028-1.754,4.331,4.331,0,0,1,3.552,1.148,1.083,1.083,0,0,0,1.321.13,6.93,6.93,0,0,1,4.721-1.126,13.19,13.19,0,0,1,4.7,1.473,8.662,8.662,0,0,0-3.075,6.8v.3a20.1,20.1,0,0,1-1.733,6.5,3.379,3.379,0,0,1-1.927,1.754,1.105,1.105,0,0,1-.5,0,.824.824,0,0,1-.411-.411,3.446,3.446,0,0,1-.3-1.1,8.484,8.484,0,0,1,0-1.3,8.815,8.815,0,0,0-.152-2.166,1.083,1.083,0,0,0-1.126-.65,1.061,1.061,0,0,0-1.083.5,8.659,8.659,0,0,0-.693,1.538,6.3,6.3,0,0,1-.8,1.624c-1,1.234-3.054,2.707-4.158,2.166s-1.018-2.707-.563-3.812a1.083,1.083,0,0,0-.585-1.408.931.931,0,0,0-.368-.108Z" transform="translate(-116.206 51.388)"/><path d="M275.478,157.119c2.577,7.363-6.5,19.989-12.8,21.548-12.149,3.53-39.177,4.721-44.5,8.879s-17.693,117.205-17.693,117.205l-36.123-3.335c-3.14-20.1-22.328-131.823,7.6-148.564,8.1-4.526,42.9-12.323,42.9-12.323s56.5,10.828,59.577,14.683A6.5,6.5,0,0,1,275.478,157.119Z" transform="translate(144.877 88.482)"/><path class="b" d="M139.766,195.5h0l26.139-.5a1.061,1.061,0,0,0,1.061-1.1,1.039,1.039,0,0,0-1.1-1.061l-26.139.5a1.083,1.083,0,0,0,0,2.166Z" transform="translate(290.161 149.456)"/><path class="b" d="M139.614,202.729h0l26.118-.563a1.083,1.083,0,0,0,0-2.166l-26.139.5a1.083,1.083,0,1,0,0,2.166Z" transform="translate(290.616 157.803)"/><path class="e" d="M206.554,133.443a1.061,1.061,0,0,0,1.061-1.083V79.583a1.083,1.083,0,1,0-2.166,0v52.842A1.083,1.083,0,0,0,206.554,133.443Z" transform="translate(104.825 16.176)"/><path class="e" d="M174.344,146.068c20.682,0,47.493-2.166,53.275-13.21,8.035-15.29,9.7-51.759,9.832-53.275a1.083,1.083,0,0,0-2.166,0c0,.368-1.711,37.509-9.529,52.387-4.57,8.663-26.984,12.994-61.526,11.868h-1.148a1.083,1.083,0,1,0,0,2.166h1.061C167.241,145.982,170.684,146.068,174.344,146.068Z" transform="translate(169.086 16.176)"/><path class="e" d="M228.352,142.672a46.54,46.54,0,0,0,19.188-3.487,1.083,1.083,0,1,0-.888-1.971c-27.027,12.323-87.363-14.207-87.969-14.467a1.083,1.083,0,0,0-.888,1.971,281.893,281.893,0,0,0,34.174,12.041,140.076,140.076,0,0,0,36.383,5.912Z" transform="translate(168.657 67.672)"/><path class="d" d="M191.021,217.08h0l35.668-1.1a1.083,1.083,0,0,0,0-2.166l-35.668,1.1a1.1,1.1,0,0,0-1.061,1.126A1.083,1.083,0,0,0,191.021,217.08Z" transform="translate(118.214 173.901)"/><path class="d" d="M189.555,189.793a1.061,1.061,0,0,0,1.061-1.061c0-.195.5-21.158,8.294-33.892s33.546-11.413,33.806-11.413a1.083,1.083,0,1,0,0-2.166c-1.1,0-27.461-1.083-35.733,12.431s-8.663,34.109-8.663,34.975a1.061,1.061,0,0,0,1.061,1.1Z" transform="translate(115.738 89.31)"/><path class="d" d="M229.543,62.9A33.957,33.957,0,0,0,212.217,44.45c-13.449-6.5-31.749-5.956-34.087-2.815s-6.5,20.271-4.613,20.509,31.575-3.985,45.2,5.263S229.543,62.9,229.543,62.9Z" transform="translate(152.848 -29.427)"/><path class="e" d="M226.719,72.244a4.461,4.461,0,0,0,2.469-.693c3.075-2.166,2.014-7.688,1.862-8.316a.239.239,0,0,0,0-.108,34.65,34.65,0,0,0-17.823-19.079c-13.622-6.5-32.485-6.3-35.408-2.49-2.3,3.075-6.259,18.473-5.068,21.288a1.516,1.516,0,0,0,1.191.953,24.3,24.3,0,0,0,3.184-.152c8.338-.628,30.449-2.3,41.537,5.219a15.874,15.874,0,0,0,8.056,3.378Zm2.166-8.489c.26,1.278.585,4.938-.975,6-.78.52-2.88.866-8.121-2.685-11.716-7.926-34.369-6.237-42.9-5.587l-2.3.152c-.346-2.794,2.794-15.983,4.873-18.776s19.491-3.205,32.745,3.14a33.178,33.178,0,0,1,16.741,17.758Z" transform="translate(152.38 -29.998)"/><path class="b" d="M191.727,52.916a1.083,1.083,0,0,0,.758-1.862l-9.334-9.117a1.04,1.04,0,0,0-1.516,0,1.061,1.061,0,0,0,0,1.516l9.334,9.139A1.169,1.169,0,0,0,191.727,52.916Z" transform="translate(171.887 -26.827)"/><path class="b" d="M201.186,54.6a1.018,1.018,0,0,0,.758-.3,1.061,1.061,0,0,0,0-1.516c-3.7-3.855-9.442-9.9-10.092-10.72a1.083,1.083,0,1,0-1.711,1.321c.91,1.191,9.291,9.9,10.244,10.828A1.1,1.1,0,0,0,201.186,54.6Z" transform="translate(143.912 -26.848)"/><path class="e" d="M185.843,138.632a1.061,1.061,0,0,0,1.061-1.061L188.182,83.1a1.061,1.061,0,0,0-1.04-1.1,1.1,1.1,0,0,0-1.1,1.061l-1.278,54.466a1.083,1.083,0,0,0,1.04,1.1Z" transform="translate(169.066 20.256)"/><path class="e" d="M186.468,147.775a1.061,1.061,0,0,0,1.061-.931l2.166-17.087a1.061,1.061,0,0,0-.931-1.191,1.083,1.083,0,0,0-1.213.91l-2.166,17.087a1.083,1.083,0,0,0,.931,1.213Z" transform="translate(166.21 74.524)"/><path class="e" d="M222.665,100.722a11.98,11.98,0,0,0,2.774-.325,10.222,10.222,0,0,0,6.5-5.219,12.063,12.063,0,0,0,1.581-9.81,10.157,10.157,0,0,0-5.2-5.587,1.083,1.083,0,0,0-.845,1.971,8.056,8.056,0,0,1,4.006,4.331,10.006,10.006,0,0,1-1.429,8.035,8.122,8.122,0,0,1-5.176,4.18c-5.414,1.321-11.933-2.88-12-2.924a1.083,1.083,0,0,0-1.494.325,1.061,1.061,0,0,0,.3,1.473A22.653,22.653,0,0,0,222.665,100.722Z" transform="translate(66.04 17.624)"/><rect class="d" width="97.13" height="38.116" rx="1.73" transform="translate(144.84 278.02)"/><path class="e" d="M242.32,202.929h89.615a4.829,4.829,0,0,0,4.829-4.829V167.5a4.829,4.829,0,0,0-4.829-4.829H242.32a4.829,4.829,0,0,0-4.829,4.829v30.536a4.829,4.829,0,0,0,4.829,4.894Zm89.615-38.116A2.685,2.685,0,0,1,334.6,167.5v30.536a2.664,2.664,0,0,1-2.664,2.664H242.32a2.685,2.685,0,0,1-2.685-2.664V167.5a2.707,2.707,0,0,1,2.685-2.685Z" transform="translate(-93.712 114.289)"/><path class="e" d="M162.126,70.195a3.313,3.313,0,0,1,4.44-1.169A130.61,130.61,0,0,1,186.619,80.72a3.335,3.335,0,0,1,1.17,4.331,3.292,3.292,0,0,1-4.461,1.169A129.376,129.376,0,0,0,163.3,74.526a3.249,3.249,0,0,1-1.169-4.331Z" transform="translate(218.966 4.644)"/><path class="e" d="M196.79,74.851l20.249-4.938a3.257,3.257,0,0,1,1.732,6.28l-20.249,4.873a3.248,3.248,0,1,1-1.733-6.259Z" transform="translate(115.39 6.029)"/></g></g></svg>